<svg version="1.1" id="Layer_1" xmlns="http://www.w3.org/2000/svg" xmlns:xlink="http://www.w3.org/1999/xlink" x="0px" y="0px"
	 width="100%" viewBox="0 0 1024 1024" enable-background="new 0 0 1024 1024" xml:space="preserve">
<path fill="#000000" opacity="1.000000" stroke="none" 
	d="
M574.297913,432.743774 
	C568.664856,426.192902 562.019714,422.973083 553.534607,423.066071 
	C534.051880,423.279633 514.565186,423.153290 495.080109,423.134827 
	C488.189728,423.128296 487.948059,422.872009 487.925873,416.206940 
	C487.909241,411.211060 487.952118,406.214996 487.958832,401.218994 
	C487.962433,398.550018 488.754639,396.685059 491.926514,396.741333 
	C514.552429,397.142700 537.199951,395.773956 559.809082,397.570831 
	C577.123047,398.946899 589.706482,407.687897 598.468018,422.394348 
	C599.221191,423.658569 600.108887,424.842621 601.072876,426.269226 
	C606.629211,423.789520 611.675232,420.532898 617.998535,420.620941 
	C629.657776,420.783264 639.498718,426.923615 643.648865,437.171783 
	C647.766357,447.339386 645.175964,459.964600 637.489868,467.190399 
	C629.353149,474.839844 616.333496,477.010010 606.365540,471.498566 
	C601.770874,468.958099 600.016052,469.996613 597.625427,474.112244 
	C590.753296,485.943573 580.121643,493.018494 567.077942,496.618225 
	C561.651489,498.115753 560.831787,497.470459 560.743896,492.035461 
	C560.708923,489.870941 560.913147,487.686371 560.690674,485.543915 
	C559.842346,477.377014 561.072876,471.374268 569.634338,466.519012 
	C581.030701,460.056030 582.298706,445.175049 574.297913,432.743774 
z"/>
<path fill="#000000" opacity="1.000000" stroke="none" 
	d="
M421.953339,454.919250 
	C426.979065,466.898682 434.245453,471.830750 446.695953,471.846832 
	C466.184082,471.871979 485.673676,471.964935 505.159485,471.747925 
	C509.898987,471.695160 511.790436,473.108032 511.463318,477.985626 
	C511.107422,483.292664 511.319122,488.640869 511.365173,493.970398 
	C511.386536,496.443573 510.855377,498.251190 507.861237,498.207214 
	C484.725311,497.867432 461.544708,499.426727 438.460022,497.403168 
	C422.413940,495.996613 410.666016,487.158142 402.289642,473.625671 
	C401.590332,472.495972 400.851044,471.389465 400.086945,470.302673 
	C399.909393,470.050110 399.554047,469.922516 399.278625,469.740204 
	C380.469025,476.687103 369.212982,475.058380 360.965149,464.199280 
	C353.677734,454.604767 353.393005,441.787354 360.184479,432.036224 
	C364.650238,425.624390 371.026489,422.232635 378.455811,420.898376 
	C385.809723,419.577698 392.527039,422.198425 398.655212,425.584320 
	C400.987000,424.066589 401.809509,421.992371 402.970520,420.202728 
	C410.404846,408.743439 420.880280,401.708679 434.041931,398.311066 
	C438.028778,397.281830 439.289398,398.700928 439.232849,402.380737 
	C439.186798,405.378143 438.972748,408.402405 439.274231,411.369965 
	C440.028259,418.792603 438.577026,423.932159 431.048981,428.355804 
	C421.721710,433.836731 418.736786,443.634918 421.953339,454.919250 
z"/>
<path fill="#000000" opacity="1.000000" stroke="none" 
	d="
M449.774719,392.161194 
	C450.255859,382.199402 452.704803,373.309143 457.802704,365.232941 
	C462.900818,357.156342 470.282959,351.553528 478.865448,346.657379 
	C473.663940,338.014709 471.480682,329.230072 474.997925,319.759155 
	C477.100372,314.097992 480.707031,309.638092 485.744965,306.349640 
	C495.657715,299.879242 509.146301,300.936920 518.236084,308.857910 
	C528.443481,317.752777 529.750061,329.774567 522.208008,346.359528 
	C525.701233,348.779449 529.364319,351.047974 532.727051,353.697723 
	C542.308167,361.247467 547.660767,371.381927 550.203674,383.148346 
	C550.941589,386.562744 550.228821,388.763092 546.077515,388.293427 
	C544.926514,388.163177 543.734070,388.164551 542.583618,388.300507 
	C533.644653,389.356537 527.034912,388.096375 522.720825,378.022186 
	C518.279053,367.649841 504.545471,363.255707 494.040863,366.222137 
	C481.820435,369.673126 473.447906,379.897217 473.379456,391.930420 
	C473.259094,413.086395 473.218628,434.244476 473.414276,455.399231 
	C473.456329,459.947601 472.130798,461.764587 467.482391,461.378357 
	C463.511383,461.048431 459.476410,461.083160 455.497711,461.359589 
	C451.125854,461.663361 449.664520,459.955566 449.697235,455.609741 
	C449.855225,434.620667 449.769073,413.629761 449.774719,392.161194 
z"/>
<path fill="#000000" opacity="1.000000" stroke="none" 
	d="
M527.658447,446.027008 
	C527.791138,433.635498 526.216309,434.864990 538.305359,434.831055 
	C551.314819,434.794556 551.309570,434.837830 551.303406,447.728180 
	C551.295166,464.881042 551.355225,482.034149 551.278198,499.186676 
	C551.186951,519.506775 543.583374,535.798096 525.312500,545.971680 
	C521.529724,548.078003 522.775696,550.066528 524.101074,552.773682 
	C532.572021,570.075073 523.130310,589.371277 504.789642,592.291138 
	C494.325317,593.957214 485.618042,590.467896 479.168335,582.278809 
	C472.558594,573.886597 471.165497,564.164978 475.877655,554.600464 
	C478.491089,549.295776 477.474457,547.041992 472.808899,544.155518 
	C461.530518,537.177917 454.712982,526.731689 451.371094,513.977478 
	C450.074280,509.028351 450.785309,508.148010 456.012787,507.974976 
	C457.510101,507.925415 459.026093,508.097595 460.506256,507.928864 
	C468.455902,507.022522 474.202881,508.309113 478.306061,517.004395 
	C483.222717,527.423584 496.777374,531.420837 508.265808,528.169617 
	C519.308777,525.044434 527.601624,514.176392 527.646423,502.477234 
	C527.717773,483.825928 527.661499,465.174164 527.658447,446.027008 
z"/>
<path fill="#000000" opacity="1.000000" stroke="none" 
	d="
M705.973145,714.037109 
	C683.285767,730.354797 650.653442,724.848816 636.286743,702.543152 
	C621.135559,679.019409 628.461060,645.645935 652.346619,632.040466 
	C675.846252,618.654846 715.322937,625.995728 720.360657,665.131409 
	C720.808228,668.607910 721.248901,672.046265 720.993774,675.575439 
	C720.703674,679.587646 719.086792,681.350586 714.725952,681.302124 
	C696.396790,681.098267 678.063965,681.213867 659.732483,681.222534 
	C652.619446,681.225891 651.716431,682.771790 655.191162,688.933960 
	C663.625916,703.892212 684.423340,706.184998 695.963440,693.036316 
	C699.257690,689.282898 701.747009,689.121826 705.590942,691.470093 
	C708.848450,693.460205 712.376770,695.029541 715.861206,696.618469 
	C718.480591,697.812988 718.866577,699.227722 717.243774,701.646484 
	C714.157654,706.246094 710.818298,710.570129 705.973145,714.037109 
M695.935242,662.207520 
	C697.093262,659.820923 695.492004,658.033813 694.436096,656.283447 
	C689.416931,647.963257 678.054932,644.075745 668.685913,647.576599 
	C661.779907,650.157166 656.568542,654.507141 654.297546,662.267029 
	C655.895386,662.585449 656.690308,662.884949 657.483643,662.880981 
	C670.089600,662.817810 682.695312,662.715759 695.935242,662.207520 
z"/>
<path fill="#000000" opacity="1.000000" stroke="none" 
	d="
M396.131836,625.885193 
	C422.774078,626.395386 440.770905,640.986023 445.527130,665.547607 
	C451.446259,696.114258 429.106842,723.317444 398.037506,723.278809 
	C377.500763,723.253357 361.710419,714.687195 353.421753,695.619446 
	C344.784149,675.748962 347.482788,656.798157 362.170624,640.380310 
	C370.989655,630.522461 382.832581,626.859558 396.131836,625.885193 
M375.171936,664.750549 
	C374.685455,666.512573 373.961548,668.246460 373.748749,670.040955 
	C371.290436,690.773315 386.329926,704.411621 404.635925,699.701904 
	C415.144409,696.998291 421.826050,686.582153 421.671692,673.864868 
	C421.522797,661.595032 414.284180,651.937805 403.411804,649.503845 
	C391.158783,646.760681 380.729492,652.162781 375.171936,664.750549 
z"/>
<path fill="#000000" opacity="1.000000" stroke="none" 
	d="
M461.080200,638.111389 
	C461.097565,636.296814 461.151459,634.963501 461.121277,633.632080 
	C461.046326,630.325989 462.500000,628.756592 465.937805,628.879761 
	C469.930450,629.022888 473.946960,629.110962 477.926849,628.838745 
	C482.569916,628.521179 484.935699,630.053040 484.268707,635.029846 
	C484.123016,636.117126 484.386719,637.259338 484.520294,639.244019 
	C491.172485,631.381775 499.058929,627.202515 508.526611,626.321716 
	C526.871887,624.615051 541.957520,632.740356 545.269104,653.113831 
	C545.937927,657.228394 546.356262,661.343811 546.340698,665.529175 
	C546.280640,681.687561 546.137024,697.850037 546.449036,714.002808 
	C546.549500,719.203125 544.758301,720.802551 539.814331,720.365173 
	C535.681458,719.999451 531.478149,720.065247 527.330750,720.328735 
	C523.161377,720.593567 521.467346,718.894897 521.818604,714.833557 
	C521.918701,713.676331 521.828735,712.502686 521.827759,711.336609 
	C521.815308,696.510559 521.850708,681.684204 521.774963,666.858459 
	C521.721008,656.287964 517.707520,650.475952 509.843292,649.263306 
	C499.556305,647.677002 490.829285,652.657654 487.664337,662.062195 
	C485.284821,669.133057 485.757019,676.560608 485.507874,683.837646 
	C485.154755,694.150269 485.158508,704.497314 485.594025,714.804993 
	C485.794189,719.543091 484.032471,720.587891 479.871735,720.342407 
	C475.555359,720.087830 471.193512,720.025391 466.886627,720.347473 
	C462.402466,720.682861 460.913971,718.716370 461.094299,714.554932 
	C461.245605,711.063477 461.112549,707.559814 461.110718,704.061584 
	C461.099152,682.238892 461.089050,660.416199 461.080200,638.111389 
z"/>
<path fill="#000000" opacity="1.000000" stroke="none" 
	d="
M342.385529,634.158936 
	C342.375610,638.303528 342.260803,641.969543 342.393219,645.626648 
	C342.510132,648.855164 341.050171,650.163513 337.929626,650.109863 
	C333.769348,650.038269 329.595795,650.278259 325.448608,650.033997 
	C321.505951,649.801636 320.238312,651.368958 320.266754,655.246765 
	C320.409607,674.721924 320.345459,694.198669 320.340210,713.674866 
	C320.338409,720.282898 320.319946,720.289001 313.689636,720.308960 
	C309.861023,720.320496 306.011444,720.056335 302.208954,720.371094 
	C297.438538,720.765991 295.728882,718.987488 295.841827,714.153687 
	C296.110107,702.673950 295.938599,691.183777 295.937897,679.697815 
	C295.936829,662.385620 295.854126,645.072937 295.979034,627.761658 
	C296.010071,623.461548 296.286285,619.078003 297.169830,614.884521 
	C300.279785,600.124084 315.032806,589.779846 330.818756,591.243042 
	C347.779358,592.815125 344.979919,591.951721 345.251770,606.877075 
	C345.257843,607.209900 345.251617,607.542908 345.251068,607.875854 
	C345.236694,616.661499 345.236664,616.661621 336.496246,615.141663 
	C327.526733,613.581970 321.883392,616.996704 320.714447,624.475464 
	C320.232117,627.561401 321.304443,628.869507 324.347107,628.849365 
	C328.674835,628.820679 333.006714,628.968201 337.329834,628.827026 
	C340.824249,628.713013 342.798523,629.869812 342.385529,634.158936 
z"/>
<path fill="#000000" opacity="1.000000" stroke="none" 
	d="
M596.373657,675.993103 
	C596.384338,680.320862 596.299805,684.153442 596.424438,687.979126 
	C596.757202,698.193787 601.907959,701.935120 611.960388,699.429016 
	C614.009399,698.918213 615.834473,697.424377 618.910889,698.069641 
	C619.588867,704.791626 619.411438,711.674988 618.922974,718.557678 
	C618.836487,719.777527 617.835632,720.613892 616.680725,721.034302 
	C604.792969,725.362244 586.487488,724.749084 577.160583,711.818237 
	C574.463562,708.079102 572.866028,703.914307 572.700256,699.296692 
	C571.625366,669.340393 572.318359,639.371033 572.040588,609.408875 
	C571.999390,604.962280 573.522827,603.147400 578.178528,603.561096 
	C582.804321,603.971985 587.496094,603.732544 592.155945,603.633606 
	C595.112732,603.570801 596.381348,604.794067 596.332886,607.780945 
	C596.243713,613.273682 596.469482,618.773315 596.306274,624.262390 
	C596.202209,627.765198 597.654724,629.021545 601.045410,628.887756 
	C605.201172,628.723877 609.370911,628.946106 613.530579,628.841003 
	C616.777222,628.758972 618.544556,629.809143 618.378784,633.418762 
	C618.195740,637.405945 618.219971,641.414490 618.397339,645.402893 
	C618.553406,648.912231 616.942078,650.182861 613.628174,650.100098 
	C609.801392,650.004456 605.935852,650.417053 602.149048,650.019592 
	C597.301758,649.510864 596.154724,651.653320 596.327942,656.016785 
	C596.585205,662.499817 596.381409,669.001160 596.373657,675.993103 
z"/>
</svg>